<svg width="157" height="40" viewBox="0 0 157 40" fill="none" xmlns="http://www.w3.org/2000/svg">
<path d="M8.30417 17.3171L8.3358 17.8707C8.3358 18.1976 8.56779 18.361 9.03177 18.361H9.75937L9.88591 18.3452L10.7401 18.3136C10.8244 18.303 10.9088 18.2978 10.9931 18.2978C11.8051 18.2978 12.5485 17.9972 13.2234 17.3962C13.8983 16.7846 14.2357 16.0148 14.2357 15.0868L14.2674 14.8337V14.3276C14.2674 13.368 13.9246 12.5824 13.2392 11.9708C12.5643 11.3592 11.5467 11.0534 10.1864 11.0534H9.56957C8.8736 11.0534 8.46762 11.2221 8.35162 11.5595C8.30944 11.6861 8.28835 12.614 8.28835 14.3434V17.1905L8.30417 17.3171ZM8.28835 26.9974L8.31999 27.6459C8.31999 28.268 8.88414 28.5791 10.0125 28.5791L10.1548 28.5949L10.2814 28.6107L10.8508 28.6266H11.5626C12.6065 28.6266 13.4923 28.2944 14.2199 27.6301C14.958 26.9657 15.3271 26.0641 15.3271 24.9253V24.3242C15.3271 23.2592 14.9475 22.347 14.1883 21.5878C13.429 20.8286 12.2691 20.4489 10.7084 20.4489H9.72774C8.92632 20.4489 8.48343 20.5438 8.39907 20.7336C8.32526 20.9129 8.28835 22.115 8.28835 24.34L8.27253 24.6089V25.0044L8.25672 25.1309V25.3998L8.2409 25.9376V26.0641L8.25672 26.1907V26.4596L8.27253 26.5861C8.27253 26.681 8.27253 26.7759 8.27253 26.8708L8.28835 26.9974ZM9.15831 8.8231H10.8666C13.4818 8.8231 15.4537 9.29762 16.7823 10.2467C18.111 11.1957 18.7753 12.4717 18.7753 14.0745C18.7753 14.9919 18.5644 15.8355 18.1426 16.6053C17.7208 17.3751 17.2094 17.9603 16.6083 18.361C16.0178 18.7512 15.7226 18.9726 15.7226 19.0254C15.7226 19.0781 16.1285 19.3101 16.9405 19.7213C17.763 20.1326 18.4168 20.6229 18.9019 21.1924C19.6717 22.1098 20.0565 23.1063 20.0565 24.1819V24.5931C20.0565 27.7355 18.1743 29.7232 14.4097 30.5563C13.4079 30.7777 11.9949 30.8885 10.1706 30.8885H9.3323L8.90523 30.8726C8.62052 30.8621 8.34108 30.8568 8.06691 30.8568L7.22858 30.8252C6.95441 30.8146 6.67497 30.8094 6.39026 30.8094L4.3498 30.7619C3.2004 30.7619 2.52025 30.7408 2.30935 30.6987C1.76101 30.5932 1.48684 30.3348 1.48684 29.9236C1.48684 29.6283 1.83483 29.1907 2.53079 28.6107C2.99477 28.2206 3.30058 27.6195 3.44821 26.8076C3.60638 25.9956 3.68547 23.5913 3.68547 19.5948C3.68547 15.5877 3.61165 13.2889 3.46402 12.6984C3.32694 12.1079 2.96314 11.5806 2.37262 11.1166C1.79265 10.6527 1.50266 10.2414 1.50266 9.88287C1.50266 9.51379 1.70829 9.26599 2.11954 9.13945C2.54134 9.01291 3.65911 8.94964 5.47284 8.94964L7.11786 8.88637C8.21454 8.84419 8.89469 8.8231 9.15831 8.8231ZM38.6104 20.6229V19.5632C38.6104 18.4876 38.4681 17.3593 38.1834 16.1782C37.6139 13.8267 36.6122 12.1975 35.178 11.2906C34.5348 10.8899 33.7966 10.6896 32.9636 10.6896H32.7263C32.0409 10.6896 31.3397 10.8952 30.6226 11.3064C29.2307 12.1079 28.2764 13.5209 27.7596 15.5455C27.4328 16.8109 27.2693 18.071 27.2693 19.3259V19.8637C27.2693 21.0975 27.4275 22.3154 27.7438 23.5175C28.3765 25.8901 29.4627 27.5352 31.0022 28.4526C31.6349 28.8322 32.2887 29.022 32.9636 29.022H33.4381C34.1552 29.022 34.8459 28.8164 35.5102 28.4051C36.1745 27.9833 36.7176 27.4192 37.1394 26.7126C38.1201 25.0782 38.6104 23.0483 38.6104 20.6229ZM22.7139 19.9428C22.7139 18.2556 22.9722 16.6949 23.4889 15.2608C24.4907 12.4558 26.2464 10.5103 28.7561 9.42416C30.2114 8.79146 31.6982 8.47511 33.2167 8.47511L33.5963 8.49093H33.9601C35.1833 8.49093 36.454 8.77037 37.7721 9.32926C39.0902 9.88814 40.2133 10.6843 41.1412 11.7177C42.0797 12.7406 42.7915 13.9374 43.2766 15.3083C43.7616 16.6686 44.0042 18.05 44.0042 19.4524V19.8162C44.0042 21.4085 43.7353 22.9323 43.1975 24.3875C42.6702 25.8321 41.9057 27.0712 40.904 28.1046C38.8793 30.203 36.1956 31.2575 32.8529 31.2681C31.482 31.2681 30.1586 31.0097 28.8827 30.493C27.6173 29.9658 26.5575 29.2329 25.7034 28.2944C23.7104 26.08 22.7139 23.2961 22.7139 19.9428ZM62.8744 20.6229V19.5632C62.8744 18.4876 62.7321 17.3593 62.4473 16.1782C61.8779 13.8267 60.8761 12.1975 59.442 11.2906C58.7988 10.8899 58.0606 10.6896 57.2276 10.6896H56.9903C56.3049 10.6896 55.6037 10.8952 54.8866 11.3064C53.4947 12.1079 52.5403 13.5209 52.0236 15.5455C51.6967 16.8109 51.5333 18.071 51.5333 19.3259V19.8637C51.5333 21.0975 51.6915 22.3154 52.0078 23.5175C52.6405 25.8901 53.7267 27.5352 55.2662 28.4526C55.8989 28.8322 56.5527 29.022 57.2276 29.022H57.7021C58.4192 29.022 59.1099 28.8164 59.7742 28.4051C60.4385 27.9833 60.9816 27.4192 61.4034 26.7126C62.3841 25.0782 62.8744 23.0483 62.8744 20.6229ZM46.9779 19.9428C46.9779 18.2556 47.2362 16.6949 47.7529 15.2608C48.7547 12.4558 50.5104 10.5103 53.0201 9.42416C54.4753 8.79146 55.9622 8.47511 57.4807 8.47511L57.8603 8.49093H58.2241C59.4473 8.49093 60.718 8.77037 62.0361 9.32926C63.3542 9.88814 64.4773 10.6843 65.4052 11.7177C66.3437 12.7406 67.0555 13.9374 67.5406 15.3083C68.0256 16.6686 68.2682 18.05 68.2682 19.4524V19.8162C68.2682 21.4085 67.9993 22.9323 67.4615 24.3875C66.9342 25.8321 66.1697 27.0712 65.168 28.1046C63.1433 30.203 60.4596 31.2575 57.1169 31.2681C55.746 31.2681 54.4226 31.0097 53.1467 30.493C51.8813 29.9658 50.8215 29.2329 49.9674 28.2944C47.9744 26.08 46.9779 23.2961 46.9779 19.9428ZM71.2893 9.4558V9.06036C71.2893 8.72292 72.9712 8.5542 76.3351 8.5542H76.9994C78.2859 8.5542 79.082 8.70183 79.3878 8.99709L79.6409 9.37671C79.6409 9.73524 79.4142 10.1412 78.9608 10.5947C78.5179 11.0375 78.2015 11.6228 78.0117 12.3504C77.8219 13.078 77.727 14.2801 77.727 15.9568C77.727 17.6334 77.8483 18.4718 78.0908 18.4718C78.597 18.4718 80.0785 17.1642 82.5355 14.549C84.0435 12.9462 84.7974 11.8811 84.7974 11.3539C84.7974 11.1641 84.7078 10.8636 84.5285 10.4523C84.3493 10.041 84.2596 9.73524 84.2596 9.53488C84.2596 9.13418 84.518 8.86528 85.0347 8.72819C85.351 8.64383 86.1841 8.60165 87.5338 8.60165C88.8941 8.60165 89.8485 8.6702 90.3968 8.80728C90.9557 8.93382 91.2351 9.16581 91.2351 9.50325L88.1191 12.208C87.6657 12.5982 86.3212 13.9849 84.0856 16.368C83.2948 17.2116 82.8993 17.9234 82.8993 18.5034C82.8993 18.5772 83.9222 19.948 85.9679 22.6159C88.0136 25.2838 89.2843 26.855 89.7799 27.3295C91.4355 28.9324 92.2633 29.7496 92.2633 29.7812C92.2633 30.1925 91.9153 30.4614 91.2193 30.5879C90.5339 30.7039 89.4636 30.7619 88.0084 30.7619H87.3124C86.5215 30.7619 85.8256 30.3928 85.2245 29.6547C85.0136 29.4016 84.5865 28.5897 83.9433 27.2188C83.3 25.848 82.5144 24.5404 81.5865 23.2961C80.6691 22.0518 79.8413 21.4296 79.1031 21.4296C78.7341 21.4296 78.423 21.6669 78.1699 22.1414C77.9274 22.6054 77.8061 23.3593 77.8061 24.4033C77.8061 25.4473 78.1963 26.9077 78.9766 28.7847C79.1769 29.2593 79.2771 29.6547 79.2771 29.971L79.119 30.1609C78.6128 30.5299 76.9994 30.7145 74.2788 30.7145C73.3298 30.7145 72.6602 30.667 72.27 30.5721C71.6584 30.4245 71.3526 30.1556 71.3526 29.7654C71.3526 29.7022 71.6215 29.3436 72.1593 28.6898C72.7076 28.036 73.0398 27.4033 73.1558 26.7917C73.2718 26.1696 73.3298 23.8075 73.3298 19.7055C73.3298 15.6035 73.2612 13.2731 73.1241 12.7142C72.9976 12.1553 72.6602 11.4804 72.1118 10.6896C71.5635 9.89869 71.2893 9.48743 71.2893 9.4558ZM96.7712 30.5247C95.4215 30.5247 94.7466 30.3085 94.7466 29.8761C94.7466 29.4438 95.0946 28.9851 95.7906 28.5C96.4971 28.0044 96.9294 27.4508 97.0876 26.8392C97.2458 26.2276 97.3248 23.8128 97.3248 19.5948C97.3248 15.3663 97.2827 13.0885 97.1983 12.7616C97.0085 12.013 96.65 11.4541 96.1227 11.085C95.1631 10.4101 94.6833 9.88287 94.6833 9.50325V9.28181C94.6833 8.90219 96.012 8.71238 98.6693 8.71238L99.7449 8.66492H100.821L101.184 8.68074H101.548C102.75 8.68074 103.478 8.72819 103.731 8.8231C103.995 8.90746 104.126 9.17636 104.126 9.62979C104.126 9.90396 103.736 10.3574 102.956 10.9901C102.534 11.3381 102.249 11.8337 102.102 12.4769C101.954 13.1202 101.88 15.6035 101.88 19.927C101.88 24.2504 101.938 26.6494 102.054 27.1239C102.17 27.5984 102.55 28.1099 103.193 28.6582C103.836 29.2065 104.158 29.66 104.158 30.0185C104.158 30.4403 103.736 30.6512 102.893 30.6512H101.785L101.422 30.6354H100.678L99.6026 30.6037L98.179 30.5721L97.483 30.5405C97.251 30.5299 97.0138 30.5247 96.7712 30.5247ZM114.756 8.47511C117.571 8.47511 119.464 8.72292 120.434 9.21854C121.162 9.58761 121.526 10.5367 121.526 12.0657C121.526 13.5947 121.267 14.3592 120.751 14.3592C120.329 14.3592 119.638 13.9163 118.678 13.0305C117.719 12.1342 116.991 11.549 116.496 11.2748C116 11.0006 115.351 10.8636 114.55 10.8636C113.759 10.8636 113.079 11.1219 112.51 11.6386C111.951 12.1553 111.671 12.7722 111.671 13.4893C111.671 14.4488 112.199 15.3083 113.253 16.0675C113.78 16.4471 114.998 17.064 116.907 17.9181C118.816 18.7723 120.176 19.6106 120.988 20.4331C122.137 21.6036 122.712 22.9217 122.712 24.3875C122.712 27.4455 121.199 29.5071 118.172 30.5721C117.276 30.8885 116.359 31.0466 115.42 31.0466H114.851C113.691 31.0466 112.404 30.9148 110.991 30.6512C109.578 30.3876 108.687 30.1292 108.318 29.8761C107.633 29.4016 107.29 28.2997 107.29 26.5703V26.0325C107.29 24.9147 107.59 24.3558 108.191 24.3558C108.613 24.3558 109.283 24.8936 110.2 25.9692C111.118 27.0448 111.887 27.7619 112.51 28.1204C113.142 28.4789 113.944 28.6582 114.914 28.6582C115.895 28.6582 116.717 28.3788 117.381 27.8199C118.046 27.261 118.378 26.6547 118.378 26.0009C118.378 25.0202 118.083 24.2135 117.492 23.5808C116.902 22.9481 115.726 22.2258 113.965 21.4138C112.204 20.6018 110.986 19.948 110.311 19.4524C108.455 18.0816 107.527 16.4366 107.527 14.5174C107.527 14.1167 107.569 13.7002 107.654 13.2678C108.002 11.4541 109.167 10.0832 111.149 9.15527C112.119 8.70183 113.132 8.47511 114.186 8.47511H114.756ZM134.717 20.5755C133.378 20.5755 132.577 20.7864 132.313 21.2082C132.134 21.5034 132.044 22.3576 132.044 23.7706C132.044 25.1836 132.129 26.1854 132.297 26.7759C132.477 27.3559 132.788 27.9253 133.23 28.4842C133.684 29.0431 133.911 29.486 133.911 29.8129C133.911 30.1292 133.499 30.3612 132.677 30.5088C131.865 30.6459 129.977 30.7145 127.014 30.7145C126.403 30.7145 125.997 30.6354 125.796 30.4772C125.606 30.3085 125.512 29.9658 125.512 29.4491C125.512 29.2593 125.775 28.9482 126.302 28.5158C126.84 28.073 127.172 27.6248 127.299 27.1714C127.425 26.7179 127.489 24.224 127.489 19.6897C127.489 15.1448 127.415 12.6457 127.267 12.1922C127.13 11.7282 126.698 11.2695 125.97 10.8161C125.475 10.4997 125.227 10.0305 125.227 9.40834L125.591 9.07618C126.023 8.84419 127.963 8.72819 131.411 8.72819C133.014 8.72819 133.816 8.99709 133.816 9.53488C133.816 9.78796 133.626 10.3099 133.246 11.1008C132.867 11.8811 132.614 12.5138 132.487 12.9989C132.371 13.4734 132.313 14.5279 132.313 16.1624C132.313 16.9849 132.508 17.5491 132.898 17.8549C133.13 18.0341 134.359 18.1238 136.584 18.1238C138.819 18.1238 140.106 18.013 140.443 17.7916C140.781 17.5702 140.949 16.832 140.949 15.5772C140.949 14.3118 140.87 13.3996 140.712 12.8407C140.565 12.2713 140.28 11.6755 139.858 11.0534C139.436 10.4312 139.225 10.0516 139.225 9.9145C139.225 9.51379 139.594 9.22381 140.333 9.04454C140.733 8.94964 141.814 8.90219 143.575 8.90219C145.336 8.90219 146.443 8.95491 146.897 9.06036C147.487 9.19745 147.783 9.59288 147.783 10.2467C147.783 10.4681 147.503 10.8372 146.944 11.3539C146.396 11.8601 146.08 12.2186 145.995 12.4295C145.805 12.9251 145.71 14.9339 145.71 18.4559L145.663 22.2996L145.647 23.0588V24.5931C145.647 26.5228 145.768 27.7092 146.011 28.152C146.106 28.3313 146.428 28.5791 146.976 28.8955C147.535 29.2013 147.814 29.6283 147.814 30.1767C147.814 30.6407 147.06 30.8726 145.552 30.8726L144.825 30.8568L143.322 30.841C141.224 30.841 139.995 30.667 139.637 30.319L139.447 29.971C139.447 29.5914 139.668 29.0273 140.111 28.2786C140.554 27.5299 140.844 26.8603 140.981 26.2698C141.129 25.6687 141.202 24.7249 141.202 23.4384C141.202 22.1519 141.007 21.3558 140.617 21.05C140.238 20.7336 138.271 20.5755 134.717 20.5755Z" fill="#FD954E"/>
<path d="M34.3623 21.989V11.8658" stroke="#FD954E" stroke-width="1.34976" stroke-linecap="round" stroke-linejoin="round"/>
<path d="M36.6123 21.989V11.8658" stroke="#FD954E" stroke-width="1.34976" stroke-linecap="round" stroke-linejoin="round"/>
<path d="M32.1133 21.989V11.8658" stroke="#FD954E" stroke-width="1.34976" stroke-linecap="round" stroke-linejoin="round"/>
<path d="M29.8638 21.989V11.8658" stroke="#FD954E" stroke-width="1.34976" stroke-linecap="round" stroke-linejoin="round"/>
<path d="M58.6582 21.989V11.8658" stroke="#FD954E" stroke-width="1.34976" stroke-linecap="round" stroke-linejoin="round"/>
<path d="M60.9077 21.989V11.8658" stroke="#FD954E" stroke-width="1.34976" stroke-linecap="round" stroke-linejoin="round"/>
<path d="M56.4087 21.989V11.8658" stroke="#FD954E" stroke-width="1.34976" stroke-linecap="round" stroke-linejoin="round"/>
<path d="M54.1592 21.989V11.8658" stroke="#FD954E" stroke-width="1.34976" stroke-linecap="round" stroke-linejoin="round"/>
</svg>
